<svg xmlns="http://www.w3.org/2000/svg" xmlns:xlink="http://www.w3.org/1999/xlink" width="200" zoomAndPan="magnify" viewBox="0 0 150 112.499997" height="150" preserveAspectRatio="xMidYMid meet" version="1.0"><defs><g/><clipPath id="f1cf6b6362"><path d="M 45.148438 41 L 148 41 L 148 52 L 45.148438 52 Z M 45.148438 41 " clip-rule="nonzero"/></clipPath><clipPath id="6290d822d2"><path d="M 0.332031 22 L 52 22 L 52 68 L 0.332031 68 Z M 0.332031 22 " clip-rule="nonzero"/></clipPath></defs><g clip-path="url(#f1cf6b6362)"><path fill="#ffffff" d="M 45.824219 47.46875 C 45.539062 47.910156 45.15625 47.5625 45.402344 47.175781 C 54.433594 32.921875 60.101562 52.257812 78.261719 50.636719 C 106.222656 48.136719 129.59375 40.160156 146.992188 47.027344 C 148.207031 47.503906 147.351562 48.511719 146.328125 48.042969 C 131.851562 41.394531 104.953125 48.355469 78.140625 51.175781 C 59.972656 53.085938 54.835938 33.449219 45.824219 47.46875 Z M 45.824219 47.46875 " fill-opacity="1" fill-rule="nonzero"/></g><g clip-path="url(#6290d822d2)"><g fill="#ffffff" fill-opacity="1"><g transform="translate(-4.639186, 54.696273)"><g><path d="M 42.027344 -12.078125 C 43.597656 -20.523438 45.003906 -29.261719 44.023438 -31.160156 C 43.792969 -32.171875 41.730469 -32.171875 42.027344 -30.800781 C 42.417969 -29.03125 41.078125 -19.539062 39.472656 -11.621094 C 35.019531 -10.832031 31.222656 -9.65625 25.855469 -7.984375 C 27.886719 -19.113281 28.933594 -30.832031 21.832031 -31.324219 C 15.644531 -31.75 10.472656 -24.253906 10.507812 -16.363281 C 2.421875 -19.835938 -2.292969 -13.191406 1.082031 -7.691406 L 1.929688 -7.691406 C -1.667969 -12.242188 1.929688 -19.3125 10.441406 -15.90625 C 10.570312 -8.445312 13.417969 -5.300781 15.90625 -5.628906 C 18.261719 -5.957031 20.03125 -11.652344 11.160156 -16.203125 C 10.933594 -23.207031 15.808594 -31.488281 21.832031 -30.800781 C 28.113281 -30.078125 26.054688 -18.296875 23.597656 -7.234375 C 21.242188 -6.449219 18.984375 -5.5625 16.953125 -4.582031 C 16.59375 -4.386719 16.855469 -3.960938 17.085938 -3.992188 C 18.984375 -4.910156 21.144531 -5.792969 23.46875 -6.578125 C 21.632812 1.539062 19.636719 9.097656 20.652344 11.457031 C 21.175781 12.667969 22.78125 12.570312 22.617188 11.09375 C 22.289062 8.246094 24.21875 0.65625 25.726562 -7.300781 C 30.996094 -8.96875 34.859375 -10.210938 39.339844 -10.996094 C 37.605469 -0.292969 35.445312 9.882812 39.503906 11.292969 C 43.269531 12.570312 52.433594 -2.027344 56.230469 -7.660156 C 56.230469 -7.824219 55.804688 -7.886719 55.675781 -7.722656 C 54.101562 -5.925781 45.660156 8.609375 40.488281 10.671875 C 37.476562 11.847656 39.765625 -0.03125 41.894531 -11.390625 C 44.449219 -11.78125 46.640625 -12.078125 47.394531 -12.144531 C 47.65625 -12.207031 47.621094 -12.667969 47.328125 -12.699219 C 46.3125 -12.632812 44.449219 -12.4375 42.027344 -12.078125 Z M 16.101562 -6.085938 C 14.238281 -5.664062 11.519531 -7.300781 11.0625 -15.644531 C 18.949219 -11.421875 17.609375 -6.449219 16.101562 -6.085938 Z M 16.101562 -6.085938 "/></g></g></g></g><g fill="#ffffff" fill-opacity="1"><g transform="translate(51.002075, 54.696273)"><g><path d="M 21.308594 10.867188 C 14.074219 12.207031 11.683594 3.46875 14.074219 -3.339844 C 23.992188 -4.191406 24.382812 -7.496094 22.355469 -8.707031 C 20.195312 -9.984375 15.414062 -9.164062 13.515625 -3.730469 C 7.070312 -3.078125 1.734375 0.164062 0.917969 6.644531 C 0.816406 6.742188 1.539062 6.644531 1.800781 6.644531 C 2.453125 0.292969 7.234375 -2.488281 13.386719 -3.273438 C 11.355469 3.566406 13.253906 11.585938 20.226562 11.457031 C 37.476562 11.09375 35.28125 -27.132812 38.589844 -31.289062 C 38.851562 -31.617188 36.757812 -31.386719 36.527344 -31.355469 C 21.699219 -30.175781 12.632812 -13.125 31.324219 -2.355469 C 29.523438 4.351562 26.609375 9.882812 21.308594 10.867188 Z M 31.453125 -2.878906 C 15.054688 -12.4375 20.324219 -28.671875 36.394531 -30.832031 C 34.136719 -28.277344 34.300781 -14.074219 31.453125 -2.878906 Z M 22.058594 -7.953125 C 23.304688 -7.003906 23.042969 -4.714844 14.203125 -3.828125 C 15.972656 -8.707031 20.457031 -9.164062 22.058594 -7.953125 Z M 22.058594 -7.953125 "/></g></g></g><g fill="#ffffff" fill-opacity="1"><g transform="translate(57.767232, 72.493309)"><g><path d="M 4.671875 0 L 4 0 L 4 -2.1875 L 1.390625 -2.1875 L 1.390625 0 L 0.71875 0 L 0.71875 -4.984375 L 1.390625 -4.984375 L 1.390625 -2.828125 L 4 -2.828125 L 4 -4.984375 L 4.671875 -4.984375 Z M 4.671875 0 "/></g></g></g><g fill="#ffffff" fill-opacity="1"><g transform="translate(64.927037, 72.493309)"><g><path d="M 3.328125 -1.3125 L 1.40625 -1.3125 L 0.875 0 L 0.21875 0 L 2.390625 -5.1875 L 2.4375 -5.1875 L 4.609375 0 L 3.84375 0 Z M 3.09375 -1.890625 L 2.390625 -3.703125 L 1.65625 -1.890625 Z M 3.09375 -1.890625 "/></g></g></g><g fill="#ffffff" fill-opacity="1"><g transform="translate(71.535028, 72.493309)"><g><path d="M 5.671875 -5.140625 L 5.671875 0 L 5.015625 0 L 5.015625 -3.21875 L 3.171875 -0.625 L 3.15625 -0.625 L 1.359375 -3.140625 L 1.359375 0 L 0.71875 0 L 0.71875 -5.140625 L 3.171875 -1.671875 L 5.65625 -5.140625 Z M 5.671875 -5.140625 "/></g></g></g><g fill="#ffffff" fill-opacity="1"><g transform="translate(79.701881, 72.493309)"><g><path d="M 0.71875 -4.984375 L 2.078125 -4.984375 C 2.703125 -4.984375 3.21875 -4.859375 3.625 -4.609375 C 4.03125 -4.367188 4.320312 -4.050781 4.5 -3.65625 C 4.6875 -3.269531 4.78125 -2.863281 4.78125 -2.4375 C 4.78125 -1.945312 4.664062 -1.515625 4.4375 -1.140625 C 4.21875 -0.773438 3.921875 -0.492188 3.546875 -0.296875 C 3.171875 -0.0976562 2.765625 0 2.328125 0 L 0.71875 0 Z M 2.1875 -0.640625 C 2.5625 -0.640625 2.890625 -0.710938 3.171875 -0.859375 C 3.460938 -1.003906 3.6875 -1.210938 3.84375 -1.484375 C 4.007812 -1.765625 4.09375 -2.097656 4.09375 -2.484375 C 4.09375 -2.867188 4.007812 -3.203125 3.84375 -3.484375 C 3.675781 -3.765625 3.453125 -3.976562 3.171875 -4.125 C 2.890625 -4.269531 2.582031 -4.34375 2.25 -4.34375 L 1.390625 -4.34375 L 1.390625 -0.640625 Z M 2.1875 -0.640625 "/></g></g></g><g fill="#ffffff" fill-opacity="1"><g transform="translate(86.67545, 72.493309)"><g><path d="M 1.390625 -4.984375 L 1.390625 0 L 0.71875 0 L 0.71875 -4.984375 Z M 1.390625 -4.984375 "/></g></g></g><g fill="#ffffff" fill-opacity="1"><g transform="translate(90.551996, 72.493309)"><g/></g></g><g fill="#ffffff" fill-opacity="1"><g transform="translate(94.504411, 72.493309)"><g><path d="M 1.390625 -4.984375 L 1.390625 0 L 0.71875 0 L 0.71875 -4.984375 Z M 1.390625 -4.984375 "/></g></g></g><g fill="#ffffff" fill-opacity="1"><g transform="translate(98.380957, 72.493309)"><g><path d="M 3.296875 -4.09375 C 3.117188 -4.1875 2.925781 -4.265625 2.71875 -4.328125 C 2.519531 -4.390625 2.332031 -4.421875 2.15625 -4.421875 C 1.882812 -4.421875 1.664062 -4.359375 1.5 -4.234375 C 1.34375 -4.109375 1.265625 -3.941406 1.265625 -3.734375 C 1.265625 -3.523438 1.359375 -3.351562 1.546875 -3.21875 C 1.734375 -3.09375 2 -2.96875 2.34375 -2.84375 C 2.601562 -2.75 2.820312 -2.644531 3 -2.53125 C 3.175781 -2.425781 3.320312 -2.28125 3.4375 -2.09375 C 3.550781 -1.90625 3.609375 -1.660156 3.609375 -1.359375 C 3.609375 -1.097656 3.539062 -0.859375 3.40625 -0.640625 C 3.28125 -0.421875 3.09375 -0.25 2.84375 -0.125 C 2.59375 0 2.304688 0.0625 1.984375 0.0625 C 1.671875 0.0625 1.367188 0.015625 1.078125 -0.078125 C 0.796875 -0.179688 0.550781 -0.3125 0.34375 -0.46875 L 0.640625 -1 C 0.804688 -0.875 1.007812 -0.765625 1.25 -0.671875 C 1.488281 -0.578125 1.710938 -0.53125 1.921875 -0.53125 C 2.179688 -0.53125 2.410156 -0.597656 2.609375 -0.734375 C 2.816406 -0.878906 2.921875 -1.085938 2.921875 -1.359375 C 2.921875 -1.585938 2.832031 -1.769531 2.65625 -1.90625 C 2.488281 -2.039062 2.253906 -2.164062 1.953125 -2.28125 C 1.671875 -2.394531 1.4375 -2.5 1.25 -2.59375 C 1.070312 -2.695312 0.914062 -2.835938 0.78125 -3.015625 C 0.644531 -3.191406 0.578125 -3.410156 0.578125 -3.671875 C 0.578125 -4.066406 0.710938 -4.382812 0.984375 -4.625 C 1.265625 -4.863281 1.617188 -4.992188 2.046875 -5.015625 C 2.585938 -5.015625 3.085938 -4.878906 3.546875 -4.609375 Z M 3.296875 -4.09375 "/></g></g></g><g fill="#ffffff" fill-opacity="1"><g transform="translate(104.168133, 72.493309)"><g><path d="M 5.671875 -5.140625 L 5.671875 0 L 5.015625 0 L 5.015625 -3.21875 L 3.171875 -0.625 L 3.15625 -0.625 L 1.359375 -3.140625 L 1.359375 0 L 0.71875 0 L 0.71875 -5.140625 L 3.171875 -1.671875 L 5.65625 -5.140625 Z M 5.671875 -5.140625 "/></g></g></g><g fill="#ffffff" fill-opacity="1"><g transform="translate(112.334984, 72.493309)"><g><path d="M 3.328125 -1.3125 L 1.40625 -1.3125 L 0.875 0 L 0.21875 0 L 2.390625 -5.1875 L 2.4375 -5.1875 L 4.609375 0 L 3.84375 0 Z M 3.09375 -1.890625 L 2.390625 -3.703125 L 1.65625 -1.890625 Z M 3.09375 -1.890625 "/></g></g></g><g fill="#ffffff" fill-opacity="1"><g transform="translate(118.942974, 72.493309)"><g><path d="M 1.390625 -4.984375 L 1.390625 0 L 0.71875 0 L 0.71875 -4.984375 Z M 1.390625 -4.984375 "/></g></g></g><g fill="#ffffff" fill-opacity="1"><g transform="translate(122.81952, 72.493309)"><g><path d="M 1.390625 -4.984375 L 1.390625 -0.640625 L 3.921875 -0.640625 L 3.921875 0 L 0.71875 0 L 0.71875 -4.984375 Z M 1.390625 -4.984375 "/></g></g></g></svg>